<?xml version="1.0" encoding="UTF-8"?>
<svg id="Layer_1" data-name="Layer 1" xmlns="http://www.w3.org/2000/svg" version="1.1" viewBox="0 0 465.8 318.3">
  <defs>
    <style>
      .cls-1 {
        fill: #e7e7e7;
        stroke-width: 0px;
      }
    </style>
  </defs>
  <polygon class="cls-1" points="224.5 18 197.5 119.8 141.3 119.8 168.3 18 90.4 18 15 301.8 92.9 301.8 121.7 193.3 178 193.3 149.2 301.8 227.1 301.8 302.5 18 224.5 18"/>
  <path class="cls-1" d="M448.7,103.3c0-60.3-38.9-83.3-89.4-85.5-11.8-.5-28.8-.3-40.3.9-8.2,30.7-12.6,47.2-19.8,74.1,12.5-1.5,21.8-2.3,35.2-2.3,25.6,0,37.5,10.7,37.5,29.2,0,35.4-34.9,83.3-121.1,155.4-3,11.1-4.8,18.2-7.1,26.6h201.4v-73.1h-53.5c30.7-33.6,57.1-88.1,57.1-125.4h0Z"/>
</svg>